PathFileType	4	(X/Y/Z)	C:\Users\dbl\Desktop\20210112\20210112\bx_n_5_1801.trc
DataRate	CameraRate	NumFrames	NumMarkers	Units	OrigDataRate	OrigDataStartFrame	OrigNumFrames
50.00	50.00	       6	43	mm	50.00	288	       460
Frame#	Time	Top.Head			R.Acromium			L.Acromium			Sternum			R.ASIS			L.ASIS			V.Sacral			R.Thigh.Upper			R.Thigh.Front			R.Thigh.Rear			R.Knee.Lat			R.Knee.Med			R.Shank.Upper			R.Shank.Front			R.Shank.Rear			R.Ankle.Lat			R.Midfoot.Lat			R.Toe.Lat			R.Toe.Tip			R.Toe.Med			R.Ankle.Med			R.Midfoot.Sup			R.Heel			L.Thigh.Upper			L.Thigh.Front			L.Thigh.Rear			L.Knee.Lat			L.Knee.Med			L.Shank.Upper			L.Shank.Front			L.Shank.Rear			L.Ankle.Lat			L.Midfoot.Lat			L.Toe.Lat			L.Toe.Tip			L.Toe.Med			L.Ankle.Med			L.Midfoot.Sup			L.Heel			origin1 front left			origin2 front right			origin 3 back right			origin 4 back leftt			
		X1	Y1	Z1	X2	Y2	Z2	X3	Y3	Z3	X4	Y4	Z4	X5	Y5	Z5	X6	Y6	Z6	X7	Y7	Z7	X8	Y8	Z8	X9	Y9	Z9	X10	Y10	Z10	X11	Y11	Z11	X12	Y12	Z12	X13	Y13	Z13	X14	Y14	Z14	X15	Y15	Z15	X16	Y16	Z16	X17	Y17	Z17	X18	Y18	Z18	X19	Y19	Z19	X20	Y20	Z20	X21	Y21	Z21	X22	Y22	Z22	X23	Y23	Z23	X24	Y24	Z24	X25	Y25	Z25	X26	Y26	Z26	X27	Y27	Z27	X28	Y28	Z28	X29	Y29	Z29	X30	Y30	Z30	X31	Y31	Z31	X32	Y32	Z32	X33	Y33	Z33	X34	Y34	Z34	X35	Y35	Z35	X36	Y36	Z36	X37	Y37	Z37	X38	Y38	Z38	X39	Y39	Z39	X40	Y40	Z40	X41	Y41	Z41	X42	Y42	Z42	X43	Y43	Z43	

288	5.740	-317.38751	116.23545	1142.89038	-499.25165	-53.79815	924.93176	-508.50085	275.28937	908.98578	-584.16907	94.82893	738.26575	-870.89301	21.15457	707.47894	-816.31079	237.79198	659.70483	-1034.82898	112.80709	659.48267	-825.51648	-77.47868	600.30933	-738.01105	-4.87134	665.28699	-715.16150	-71.61272	574.02783	-575.95532	-50.59958	541.88330	-540.81390	64.71558	535.18390	-560.21472	-48.47071	511.25360	-514.08051	2.48832	464.27875	-629.30981	-52.02694	455.61847	-745.07947	-11.95804	210.07904	-648.59863	-65.78971	163.79501	-609.07391	-73.57818	160.06230	-547.75745	-31.41788	163.67926	-596.75647	26.41467	166.41554	-702.33826	76.15208	208.46643	-671.28241	55.47574	153.11317	-787.36517	48.56464	180.08827	-817.66431	304.97614	573.29846	-707.32300	236.15219	656.12354	-682.01135	302.76849	559.85925	-580.60681	289.30054	530.57477	-511.00140	171.34584	527.80920	-930.69220	286.73004	164.80542	-496.48624	231.90533	468.04553	-605.82507	283.54001	453.44513	-754.43262	224.06862	206.77959	-660.19598	295.53229	160.08601	-624.56964	303.59329	159.56621	-554.08954	256.41107	162.56552	-590.21820	216.79387	171.69739	-696.36438	149.20088	206.83124	-673.29718	171.21500	151.88860	-789.06879	170.40883	191.05991	-528.10590	304.58704	146.70425	-517.79175	-72.40952	142.78746	-875.85083	-78.62976	141.06111	-882.56934	296.15445	144.65706	
289	5.760	-317.21957	117.24523	1139.22827	-498.29083	-53.23471	921.24860	-508.01059	275.56625	904.91461	-583.50684	94.95230	732.75763	-871.94482	22.31019	704.00244	-816.34717	238.04659	657.11511	-1034.96204	113.04242	656.32544	-825.54260	-77.17249	598.35425	-738.65527	-4.31967	663.81677	-714.99451	-71.01620	572.88403	-575.58258	-49.65191	541.78027	-540.70276	65.88059	535.05402	-559.67682	-47.49271	511.21832	-513.66748	3.62398	464.27448	-628.88147	-51.15826	455.58954	-744.99768	-11.67363	210.09425	-648.51129	-65.47365	164.08383	-608.96899	-73.12468	160.54671	-547.81128	-31.43991	163.80812	-596.79901	26.51346	166.26805	-702.42688	76.52651	208.39581	-671.32391	55.56657	152.95036	-787.39581	48.68914	180.02647	-817.64856	305.32852	571.27179	-707.95624	236.05623	654.54095	-681.94897	303.05060	558.76990	-581.06189	289.47986	530.70789	-510.94672	171.30426	527.63470	-950.49542	286.84030	146.32571	-496.23248	231.85287	467.85211	-605.66730	283.74011	453.25974	-754.43201	224.04399	206.74290	-660.19208	295.47495	160.10672	-624.62451	303.57324	159.58159	-554.13495	256.45850	162.62723	-590.27716	216.81509	171.67494	-696.40955	149.04172	206.82230	-673.20624	171.02190	151.94165	-789.11462	170.32704	191.00597	-528.12073	304.58267	146.70822	-517.78656	-72.37654	142.76222	-875.85443	-78.57831	141.00427	-882.58856	296.13885	144.66078	
290	5.780	-316.86545	118.21671	1135.90942	-497.30350	-52.69154	917.99469	-507.48901	275.85403	901.36774	-582.87067	95.07423	727.54785	-872.93140	23.44853	700.70215	-816.39124	238.24448	654.92712	-1035.06421	113.17631	653.70599	-825.54846	-76.92681	596.72156	-739.18671	-3.98066	662.62885	-714.85107	-70.51485	571.94653	-575.26593	-48.79012	541.70392	-540.64221	66.93735	534.96985	-559.19214	-46.60654	511.19757	-513.29132	4.67878	464.29428	-628.50708	-50.41326	455.57715	-744.90338	-11.45283	210.13451	-648.44635	-65.16159	164.35297	-608.80670	-72.65805	161.04128	-547.88843	-31.44880	163.91704	-596.85962	26.64273	166.09489	-702.51361	76.86108	208.34648	-671.39819	55.64108	152.82652	-787.41187	48.76315	179.96236	-817.73193	305.58511	569.53101	-708.58087	235.98531	653.16223	-681.99426	303.40536	557.90063	-580.74225	289.65018	530.20941	-510.98892	171.38988	527.49994	-964.49866	286.86984	133.08582	-496.10846	231.98892	467.68530	-605.62024	284.03131	453.10901	-754.43774	224.04662	206.69542	-660.18237	295.43982	160.12209	-624.67426	303.59195	159.60123	-554.17236	256.50546	162.68814	-590.34851	216.87035	171.67453	-696.45209	148.96629	206.81970	-673.07971	170.82198	152.02455	-789.15973	170.28389	190.97150	-528.15625	304.56519	146.69286	-517.78815	-72.36048	142.74738	-875.85632	-78.50837	140.92206	-882.60986	296.12335	144.66559	
291	5.800	-316.33929	119.13266	1132.93396	-496.30389	-52.16757	915.12860	-506.93704	276.16116	898.33344	-582.26007	95.19432	722.63940	-873.85181	24.56766	697.58008	-816.42957	238.38817	653.09705	-1035.12720	113.20848	651.58026	-825.51892	-76.74294	595.38428	-739.61096	-3.81428	661.66913	-714.71442	-70.12306	571.18042	-574.98370	-48.07027	541.63129	-540.59045	67.82528	534.93945	-558.76147	-45.84840	511.15121	-512.95776	5.58769	464.32535	-628.18494	-49.81981	455.56027	-744.80206	-11.29314	210.20132	-648.39471	-64.87094	164.59845	-608.62311	-72.20348	161.52902	-547.97455	-31.44400	163.99043	-596.92877	26.77489	165.93172	-702.58459	77.13118	208.30101	-671.49146	55.71347	152.74124	-787.41187	48.80910	179.91084	-817.88776	305.75491	568.06207	-709.17249	235.92603	651.96509	-682.11267	303.80054	557.21021	-580.18542	289.86401	529.50745	-511.09555	171.59416	527.38538	-973.48254	286.82794	124.39624	-496.07843	232.30978	467.54828	-605.64978	284.39792	452.95746	-754.44916	224.06944	206.64655	-660.17096	295.42859	160.12573	-624.71716	303.64648	159.63068	-554.19623	256.54553	162.74243	-590.41730	216.95320	171.69923	-696.47418	148.97284	206.81412	-672.94904	170.64130	152.10876	-789.19031	170.26393	190.95435	-528.20624	304.54080	146.66551	-517.79291	-72.36618	142.74664	-875.85706	-78.43186	140.82959	-882.62994	296.11316	144.67094	
292	5.820	-315.67163	119.98171	1130.30444	-495.30365	-51.66280	912.60034	-506.35764	276.48569	895.77747	-581.67480	95.31216	718.03552	-874.70483	25.66564	694.63831	-816.45557	238.48398	651.58887	-1035.14697	113.14500	649.90662	-825.44464	-76.61826	594.31677	-739.94250	-3.75095	660.87476	-714.56525	-69.83985	570.55750	-574.71326	-47.51410	541.54510	-540.51233	68.51521	534.96375	-558.38562	-45.23747	511.05838	-512.67786	6.31367	464.35013	-627.91467	-49.37575	455.51636	-744.70264	-11.18242	210.28554	-648.34363	-64.61733	164.82382	-608.45752	-71.78593	161.99536	-548.05518	-31.42834	164.02638	-596.99500	26.88402	165.80679	-702.63208	77.32962	208.25130	-671.58630	55.79339	152.69180	-787.39899	48.84838	179.88121	-818.08710	305.86292	566.86493	-709.71552	235.85687	650.93213	-682.27954	304.18634	556.65662	-579.76373	290.12320	528.90070	-511.23788	171.87866	527.28186	-977.95148	286.72052	119.80862	-496.10608	232.77287	467.44751	-605.72546	284.79965	452.78500	-754.46564	224.10062	206.60471	-660.16248	295.43671	160.11224	-624.75446	303.72568	159.67236	-554.20923	256.57315	162.78502	-590.47406	217.05121	171.74658	-696.46997	149.05209	206.80013	-672.85150	170.50836	152.17033	-789.20154	170.25363	190.94774	-528.26074	304.51791	146.63890	-517.79492	-72.39149	142.76202	-875.85730	-78.36172	140.74478	-882.64484	296.11188	144.67531	
293	5.840	-314.89911	120.75597	1128.01318	-494.30981	-51.18154	910.35602	-505.75122	276.81424	893.64349	-581.11450	95.42731	713.73932	-875.48950	26.74055	691.87891	-816.46863	238.53500	650.37207	-1035.12280	112.99742	648.64667	-825.32477	-76.54755	593.49298	-740.19958	-3.71256	660.18848	-714.38922	-69.65283	570.05939	-574.43872	-47.10680	541.43530	-540.38635	69.01272	535.03265	-558.06256	-44.77211	510.91910	-512.45764	6.85577	464.35132	-627.69452	-49.05498	455.43085	-744.61377	-11.10356	210.37448	-648.28503	-64.41056	165.03395	-608.33923	-71.42308	162.42444	-548.11670	-31.40682	164.03394	-597.04779	26.95691	165.72975	-702.65186	77.46731	208.19853	-671.66553	55.88177	152.67538	-787.37793	48.89837	179.87556	-818.30688	305.93155	565.93665	-710.20056	235.75829	650.05469	-682.48206	304.50793	556.20386	-579.61273	290.38925	528.50775	-511.39136	172.18343	527.19031	-978.22473	286.55103	119.03653	-496.16156	233.30019	467.38629	-605.82330	285.18097	452.59622	-754.48578	224.12593	206.57591	-660.16101	295.45432	160.08157	-624.78815	303.81332	159.72440	-554.21887	256.58487	162.81340	-590.51556	217.15109	171.81094	-696.44495	149.18562	206.77870	-672.81561	170.44331	152.19653	-789.19708	170.24431	190.94466	-528.31116	304.50089	146.62431	-517.79022	-72.42815	142.79152	-875.85785	-78.30741	140.68192	-882.65161	296.12018	144.67677	
